<?xml version="1.0" encoding="UTF-8"?>
<svg id="b" xmlns="http://www.w3.org/2000/svg" viewBox="0 0 380.58 116.99">
    <g fill="#fff" id="c">
        <path d="M69.31,34.21h-25.16l-21.58,30.8V5.73H0V116.99H22.57v-34.55l23.63,34.55h27.06l-31.57-43.35,27.62-39.43Z" />
        <path d="M338.16,37.36c-4.09,0-7.91-1.16-11.15-3.16h-.13V116.98h22.57V34.2h-.13c-3.26,2-7.08,3.16-11.16,3.16Z" />
        <path d="M380.58,5.69h-22.57V116.99h22.57V5.69Z" />
        <path d="M338.16,0c-8.83,0-16.02,7.19-16.02,16.02s7.18,16.02,16.02,16.02,16.02-7.18,16.02-16.02c-.01-8.83-7.19-16.02-16.02-16.02Zm0,22.95c-3.82,0-6.93-3.11-6.93-6.93s3.11-6.93,6.93-6.93,6.93,3.11,6.93,6.93-3.11,6.93-6.93,6.93Z" />
        <path d="M280.45,33.37c-7.6,0-14.72,2.03-20.86,5.57V5.73h-22.57V116.99h22.57v-5.59c6.14,3.54,13.27,5.57,20.86,5.57,23.08,0,41.8-18.71,41.8-41.8-.01-23.09-18.72-41.8-41.8-41.8Zm-.27,61.03c-10.59,0-19.18-8.59-19.18-19.18s8.59-19.18,19.18-19.18,19.18,8.59,19.18,19.18-8.59,19.18-19.18,19.18Z" />
        <path d="M201.71,38.81c-6.09-3.46-13.13-5.44-20.63-5.44-23.09,0-41.8,18.71-41.8,41.8s18.71,41.8,41.8,41.8c7.5,0,14.54-1.98,20.63-5.44v5.46h22.57V5.73h-22.57V38.81Zm-20.36,55.59c-10.59,0-19.18-8.59-19.18-19.18s8.59-19.18,19.18-19.18,19.18,8.59,19.18,19.18-8.59,19.18-19.18,19.18Z" />
        <path d="M121.27,34.21l-14.64,47.21-14.64-47.21h-22.37l25.67,82.78h22.68l25.67-82.78h-22.37Z" />
    </g>
</svg>