<?xml version="1.0" encoding="UTF-8"?>
<svg xmlns="http://www.w3.org/2000/svg" width="112" height="34" viewBox="0 0 112 34" fill="#fff">
    <g clip-path="url(#clip0_212_2619)">
        <path d="M12.319 0.00540037L0.292969 8.41211L6.61325 17.4237L18.6393 9.01701L12.319 0.00540037Z"></path>
        <path d="M12.0338 16.6026L0.0078125 25.0093L6.31837 34.007L18.3444 25.6003L12.0338 16.6026Z"></path>
        <path d="M106.491 26.3679C105.711 28.5003 104.813 30.2096 102.168 30.2096H99.7101V27.7725H100.388C101.592 27.7725 102.473 27.8572 103.1 27.0956C103.609 26.4694 103.999 25.3863 103.473 24.1001L98.4727 12.0503H101.524L105.389 22.2723H105.44L108.983 12.0503H112.017L106.491 26.3679Z"></path>
        <path d="M52.3973 21.6459H55.2452C54.5501 24.2691 52.482 26.2661 48.9391 26.2661C44.6334 26.2661 42.0059 23.2875 42.0059 18.9719C42.0059 14.4871 44.6334 11.6777 48.8035 11.6777C53.2618 11.6777 55.4655 14.7917 55.4655 19.6996H44.8537C44.8537 22.0182 46.3455 23.9475 48.8544 23.9475C51.2106 23.9306 52.1599 22.4751 52.3973 21.6459ZM44.8537 17.5842H52.6176C52.6176 15.4518 51.1089 13.9117 48.8035 13.9117C46.4981 13.9117 44.8537 15.4518 44.8537 17.5842Z"></path>
        <path d="M69.0611 16.3147V25.8428H66.1963V17.1101C66.1963 15.2485 65.4165 14.0638 63.467 14.0638C61.2803 14.0638 59.8733 15.3839 59.8733 17.4486V25.8428H57.0254V12.0499H59.8733V13.8269H59.9241C60.6531 12.7438 62.094 11.6606 64.4672 11.6606C67.0439 11.6776 69.0611 13.1669 69.0611 16.3147Z"></path>
        <path d="M83.8937 6.56641V25.8596H81.0458V24.2687H80.9949C80.266 25.2165 78.9099 26.2658 76.7739 26.2658C73.231 26.2658 70.6035 23.5072 70.6035 18.9716C70.6035 14.436 73.231 11.6774 76.7739 11.6774C78.9099 11.6774 80.266 12.6759 80.9949 13.7252H81.0458V6.56641H83.8937ZM81.0288 18.9716C81.0288 15.8914 79.5879 13.996 77.2655 13.996C74.7736 13.996 73.4514 16.2638 73.4514 18.9716C73.4514 21.6794 74.7736 23.9472 77.2655 23.9472C79.5879 23.9303 81.0288 22.0179 81.0288 18.9716Z"></path>
        <path d="M88.76 12.0503H85.9121V25.8602H88.76V12.0503Z"></path>
        <path d="M87.3357 10.0186C88.2439 10.0186 88.98 9.2836 88.98 8.37696C88.98 7.47033 88.2439 6.73535 87.3357 6.73535C86.4276 6.73535 85.6914 7.47033 85.6914 8.37696C85.6914 9.2836 86.4276 10.0186 87.3357 10.0186Z"></path>
        <path d="M40.8361 21.0704C40.8361 23.8966 38.7002 26.266 34.208 26.266C29.8514 26.266 26.5458 23.9982 26.3594 19.9703H29.3259C29.4785 22.2381 31.0211 23.7274 34.208 23.7274C36.8525 23.7274 37.8696 22.5597 37.8696 21.1888C37.8696 19.0734 36.3439 18.6841 32.8349 17.8041C30.0548 17.1102 27.0374 16.044 27.0374 12.6592C27.0374 9.51138 29.4785 7.73438 33.3604 7.73438C37.2763 7.73438 40.1072 9.76524 40.3615 13.4208H37.3949C37.1237 11.3561 35.8184 10.273 33.3604 10.273C31.2415 10.273 29.9701 11.0684 29.9701 12.3884C29.9701 14.3347 31.6314 14.6732 34.1233 15.2993C37.9374 16.264 40.8361 17.0933 40.8361 21.0704Z"></path>
        <path d="M95.1848 10.561V12.0673H97.7275V14.3858H95.1848V25.8433H92.3199V14.3858H90.3535V12.0673H92.3199V10.3241C92.3199 7.41321 93.5574 6.38086 95.8289 6.38086C96.5239 6.38086 97.1512 6.46548 97.7275 6.56702V8.88559C95.8967 8.80097 95.1848 8.98713 95.1848 10.561Z"></path>
    </g>
    <defs>
        <clipPath id="clip0_212_2619">
            <rect width="112" height="34" fill="white"></rect>
        </clipPath>
    </defs>
</svg> 