<svg id="Lager_1" data-name="Lager 1" xmlns="http://www.w3.org/2000/svg" viewBox="0 0 380.19 74.92"><defs><style>.cls-1{fill:#fff;}.cls-2{fill:none;}</style></defs><title>vt_logo_vit_space</title><path class="cls-1" d="M346.25,134.23h9.35L360.24,159h0.13l4.84-24.79h9l-9.09,33H355Z" transform="translate(-241.16 -111.87)"/><path class="cls-1" d="M397.95,121.61v7.06h-7.26v-7.06h7.26Zm-11.58,0v7.06h-7.26v-7.06h7.26ZM383.88,157c0,2.35.39,5.23,3.4,5.23,5.43,0,4.58-7.33,4.58-10.92C387.28,151.5,383.88,151.11,383.88,157Zm17,4.12c0,2,.26,4.12.46,6.15h-8.57l-0.39-4.38h-0.13a9.15,9.15,0,0,1-8.63,5c-6.41,0-8.76-4.78-8.76-10.53,0-10.92,8.44-11.38,17-11.25v-2.55c0-2.81-.39-4.84-3.73-4.84s-3.47,2.42-3.47,5h-9c0-4,1.24-6.54,3.4-8s5.1-2.16,8.63-2.16c11.71,0,13.21,5,13.21,11.05v16.48Z" transform="translate(-241.16 -111.87)"/><path class="cls-1" d="M413.13,156.67a9.45,9.45,0,0,0,.46,4c0.52,1,1.5,1.57,3.34,1.57a3.22,3.22,0,0,0,3.4-3.4c0-7-16.22-5.43-16.22-16,0-7.13,7.06-9.29,13-9.29,6.28,0,12,3,11.45,10.14h-9c0-2.29-.26-3.66-0.92-4.25a3.1,3.1,0,0,0-2.35-.72c-2,0-3.14,1.31-3.14,3.53,0,5.23,16.22,5,16.22,15.57,0,5.76-4.71,10.07-12.36,10.07-8,0-13.41-2-12.89-11.25h9Z" transform="translate(-241.16 -111.87)"/><path class="cls-1" d="M430.27,134.23H434V129l9.22-4.12v9.35H448v5.69h-4.78v17.66c0,2.49-.07,4.12,2.94,4.12a6.33,6.33,0,0,0,1.63-.13v5.69a37.78,37.78,0,0,1-4.78.33c-8,0-9-5.3-9-7.33V139.92h-3.73v-5.69Z" transform="translate(-241.16 -111.87)"/><path class="cls-1" d="M447.87,134.23h3.73V129l9.22-4.12v9.35h4.78v5.69h-4.78v17.66c0,2.49-.06,4.12,2.94,4.12a6.33,6.33,0,0,0,1.64-.13v5.69a37.81,37.81,0,0,1-4.78.33c-8,0-9-5.3-9-7.33V139.92h-3.73v-5.69Z" transform="translate(-241.16 -111.87)"/><path class="cls-1" d="M477.93,134.23v4.25h0.13c1.7-3.79,4.84-4.91,8.57-4.91v8.24c-8.11-.52-8.24,4.19-8.24,7.46v18h-9.22v-33h8.77Z" transform="translate(-241.16 -111.87)"/><path class="cls-1" d="M513,161.12c0,2,.26,4.12.46,6.15h-8.57l-0.39-4.38h-0.13a9.15,9.15,0,0,1-8.63,5c-6.41,0-8.76-4.78-8.76-10.53,0-10.92,8.44-11.38,17-11.25v-2.55c0-2.81-.39-4.84-3.73-4.84s-3.47,2.42-3.47,5h-9c0-4,1.24-6.54,3.4-8s5.1-2.16,8.63-2.16c11.71,0,13.21,5,13.21,11.05v16.48ZM496,157c0,2.35.39,5.23,3.4,5.23,5.43,0,4.58-7.33,4.58-10.92C499.38,151.5,496,151.11,496,157Z" transform="translate(-241.16 -111.87)"/><path class="cls-1" d="M532.4,128.89c-3.93,0-4.37.43-4.37,2.95v2.36h4.37v6H528v27.08h-9.24V140.19h-4.16v-6h4.16c-0.06-9.49-.76-12.9,10.49-12.9,1.11,0,2,.07,3.12.14v7.45Z" transform="translate(-241.16 -111.87)"/><path class="cls-1" d="M545.4,167.27h-9.22v-33h9.22v33Zm0-45.63v7.26h-9.22v-7.26h9.22Z" transform="translate(-241.16 -111.87)"/><path class="cls-1" d="M550.21,167.27l0-45.68h9.28v26.58h0.13l8.31-13.93h9.62L568.13,149l10.4,18.32h-10.4l-8.57-18h-0.13v18h-9.22Z" transform="translate(-241.16 -111.87)"/><path class="cls-1" d="M342,134c-21,1.36-35.13,15.61-35.13,15.61A101.53,101.53,0,0,0,298.1,142,67.13,67.13,0,0,0,304,118.46s14.66,2.91,21.57,16.88q2.21-.53,4.61-0.89a36.74,36.74,0,0,0-61.83-7.56c-15.88-4.26-27.2-1.79-27.2-1.79,49.11,10,65.56,51,65.56,51,7-16.49,14.94-26.69,21.54-32.91a39.59,39.59,0,0,1,.8,6.53s0.65,11.63-7.59,20.75a31.69,31.69,0,0,1-24.54,11.41,32.07,32.07,0,0,1-25.49-12.5s9-3.66,17.55-13.41q-1.81-1.71-3.63-3.32a54.09,54.09,0,0,1-16.47,12.73,32.05,32.05,0,0,1-2-26.79q-2-1.33-4-2.53a36.76,36.76,0,1,0,69.31,3.72C338,135.25,342,134,342,134Zm-68.86-5.7c4.71-5.22,13-11.22,26.11-10.56a58.36,58.36,0,0,1-5.2,21.21A83.67,83.67,0,0,0,273.16,128.35Z" transform="translate(-241.16 -111.87)"/><rect class="cls-2" x="0.19" width="380" height="74.92"/></svg>