<svg width="75" height="58" viewBox="0 0 75 58" fill="none" xmlns="http://www.w3.org/2000/svg">
<line x1="2" y1="50" x2="34" y2="50" stroke="white" stroke-width="8"/>
<line x1="48" y1="50" x2="56" y2="50" stroke="white" stroke-width="8"/>
<circle cx="64" cy="50" r="4" fill="white"/>
<circle cx="41" cy="50" r="4" fill="white"/>
<path d="M22.032 25.736C22.192 22.664 22.208 19.64 22.08 16.664C21.952 13.656 21.952 10.616 22.08 7.544C21.568 7.544 20.944 7.56 20.208 7.592C19.504 7.592 18.8 7.608 18.096 7.64C17.424 7.672 16.784 7.704 16.176 7.736C15.6 7.768 15.2 7.768 14.976 7.736C14.688 8.12 14.384 8.728 14.064 9.56C13.776 10.392 13.504 11.24 13.248 12.104C13.024 12.936 12.8 13.672 12.576 14.312C12.384 14.952 12.24 15.256 12.144 15.224C12.048 15.224 11.952 15.176 11.856 15.08C11.6 14.696 11.344 14.168 11.088 13.496C10.864 12.824 10.624 12.12 10.368 11.384C10.112 10.648 9.84 9.96 9.552 9.32C9.264 8.648 8.976 8.152 8.688 7.832H8.64C8.096 7.864 7.536 7.88 6.96 7.88C6.384 7.848 5.808 7.832 5.232 7.832C4.656 7.8 4.096 7.8 3.552 7.832C3.008 7.864 2.528 7.944 2.112 8.072C2.08 12.424 2.048 16.232 2.016 19.496C2.016 22.76 2 25.576 1.968 27.944C1.968 30.312 1.968 32.296 1.968 33.896C1.968 35.496 1.968 36.792 1.968 37.784C2 38.744 2.032 39.464 2.064 39.944C2.096 40.424 2.128 40.728 2.16 40.856C2.192 40.952 2.24 41 2.304 41C3.328 41 4.448 41.016 5.664 41.048C6.88 41.08 8 41.016 9.024 40.856C8.832 37.88 8.688 34.856 8.592 31.784C8.528 28.712 8.624 25.672 8.88 22.664C8.88 22.664 8.928 22.824 9.024 23.144C9.152 23.464 9.296 23.864 9.456 24.344C9.616 24.824 9.808 25.352 10.032 25.928C10.256 26.504 10.464 27.048 10.656 27.56C10.88 28.072 11.088 28.504 11.28 28.856C11.504 29.176 11.696 29.336 11.856 29.336C11.984 29.336 12.176 29.032 12.432 28.424C12.688 27.816 12.96 27.112 13.248 26.312C13.536 25.512 13.824 24.744 14.112 24.008C14.4 23.24 14.656 22.68 14.88 22.328C15.04 23.672 15.152 25.144 15.216 26.744C15.312 28.344 15.36 29.976 15.36 31.64C15.392 33.304 15.408 34.936 15.408 36.536C15.44 38.136 15.488 39.624 15.552 41C15.936 41 16.384 41 16.896 41C17.44 40.968 18 40.952 18.576 40.952C19.152 40.952 19.728 40.952 20.304 40.952C20.88 40.952 21.408 40.984 21.888 41.048L22.032 25.736ZM37.4389 7.256C37.3109 11.064 37.2629 14.856 37.2949 18.632C37.3589 22.408 37.4229 26.088 37.4869 29.672C37.4549 30.152 37.3749 30.616 37.2469 31.064C37.1189 31.48 36.9269 31.864 36.6709 32.216C36.4469 32.536 36.1589 32.776 35.8069 32.936C35.4549 33.096 35.0389 33.128 34.5589 33.032C33.9829 33 33.5189 32.792 33.1669 32.408C32.8149 32.024 32.5269 31.56 32.3029 31.016C32.0789 30.44 31.9189 29.848 31.8229 29.24C31.7589 28.6 31.7109 28.04 31.6789 27.56V27.32V27.272C31.1029 27.176 30.4629 27.096 29.7589 27.032C29.0869 26.968 28.4149 26.936 27.7429 26.936C27.0709 26.936 26.4149 26.952 25.7749 26.984C25.1669 27.016 24.6549 27.08 24.2389 27.176C24.1749 28.392 24.1909 29.736 24.2869 31.208C24.4149 32.648 24.6869 34.04 25.1029 35.384C25.5189 36.696 26.1269 37.864 26.9269 38.888C27.7269 39.912 28.7829 40.616 30.0949 41C31.5349 41.32 33.0549 41.432 34.6549 41.336C36.2549 41.272 37.7269 40.904 39.0709 40.232C40.5429 39.688 41.6469 38.84 42.3829 37.688C43.1509 36.536 43.6789 35.256 43.9669 33.848C44.2869 32.44 44.4629 30.984 44.4949 29.48C44.5269 27.944 44.5749 26.52 44.6389 25.208C44.7029 22.104 44.6709 19.016 44.5429 15.944C44.4149 12.872 44.3829 9.832 44.4469 6.824L37.4389 6.92V7.256ZM59.6576 7.256C59.5296 11.064 59.4816 14.856 59.5136 18.632C59.5776 22.408 59.6416 26.088 59.7056 29.672C59.6736 30.152 59.5936 30.616 59.4656 31.064C59.3376 31.48 59.1456 31.864 58.8896 32.216C58.6656 32.536 58.3776 32.776 58.0256 32.936C57.6736 33.096 57.2576 33.128 56.7776 33.032C56.2016 33 55.7376 32.792 55.3856 32.408C55.0336 32.024 54.7456 31.56 54.5216 31.016C54.2976 30.44 54.1376 29.848 54.0416 29.24C53.9776 28.6 53.9296 28.04 53.8976 27.56V27.32V27.272C53.3216 27.176 52.6816 27.096 51.9776 27.032C51.3056 26.968 50.6336 26.936 49.9616 26.936C49.2896 26.936 48.6336 26.952 47.9936 26.984C47.3856 27.016 46.8736 27.08 46.4576 27.176C46.3936 28.392 46.4096 29.736 46.5056 31.208C46.6336 32.648 46.9056 34.04 47.3216 35.384C47.7376 36.696 48.3456 37.864 49.1456 38.888C49.9456 39.912 51.0016 40.616 52.3136 41C53.7536 41.32 55.2736 41.432 56.8736 41.336C58.4736 41.272 59.9456 40.904 61.2896 40.232C62.7616 39.688 63.8656 38.84 64.6016 37.688C65.3696 36.536 65.8976 35.256 66.1856 33.848C66.5056 32.44 66.6816 30.984 66.7136 29.48C66.7456 27.944 66.7936 26.52 66.8576 25.208C66.9216 22.104 66.8896 19.016 66.7616 15.944C66.6336 12.872 66.6016 9.832 66.6656 6.824L59.6576 6.92V7.256Z" fill="white"/>
</svg>
